<svg width="200" height="200" xmlns="http://www.w3.org/2000/svg" fill-rule="evenodd" clip-rule="evenodd"
  stroke-linecap="round" stroke-linejoin="round" stroke-miterlimit="1.414">
  <path
    d="M100.158 189.837l-4.745-.264-.283-.016-.284-.018-.283-.018-.283-.019-.282-.021-.283-.021-.282-.022-.282-.022-.281-.024-.282-.025-.28-.025-.282-.026-.28-.027-.28-.028-.281-.029-.28-.03-.28-.031-.28-.031-.278-.033-.28-.033-.278-.034-.278-.035-.278-.036-.278-.036-.278-.038-.277-.038-.277-.039-.277-.041-.276-.04-.277-.042-.276-.043-.275-.043-.276-.045-.275-.045-.275-.046-.274-.046-.274-.048-.274-.049-.274-.049-.274-.05-.273-.051-.272-.052-.273-.053-.272-.053-.272-.054-.272-.056-.271-.056-.271-.056-.271-.058-.27-.058-.27-.06-.27-.06-.27-.061-.27-.061-.268-.063-.269-.063-.268-.064-.268-.065-.268-.066-.267-.067-.267-.067-.267-.068-.266-.069-.267-.07-.265-.071-.266-.071-.265-.072-.264-.073-.265-.074-.264-.074-.264-.076-.263-.076-.263-.077-.263-.078-.263-.078-.262-.079-.261-.08-.262-.081-.261-.082-.26-.082-.261-.084-.26-.084-.26-.084-.26-.086-.258-.086-.259-.087-.258-.088-.258-.089-.258-.089-.257-.09-.257-.091-.256-.092-.256-.092-.256-.093-.255-.094-.255-.095-.255-.096-.254-.096-.254-.097-.253-.098-.254-.098-.252-.099-.253-.1-.252-.101-.251-.101-.252-.103-.25-.103-.25-.103-.25-.105-.25-.105-.25-.106-.249-.106-.248-.108-.249-.108-.247-.109-.248-.109-.247-.11-.246-.111-.246-.112-.246-.113-.245-.113-.245-.114-.245-.114-.244-.116-.244-.116-.243-.117-.243-.117-.242-.118-.243-.119-.241-.12-.241-.12-.241-.121-.24-.122-.24-.122-.24-.124-.24-.124-.238-.124-.239-.125-.237-.126-.238-.127-.237-.127-.236-.128-.236-.129-.236-.13-.235-.13-.235-.131-.235-.131-.233-.132-.234-.133-.233-.134-.233-.134-.232-.135-.232-.135-.231-.137-.23-.137-.231-.137-.23-.138-.23-.139-.229-.14-.228-.14-.228-.141-.228-.142-.227-.142-.227-.143-.226-.144-.226-.144-.225-.145-.225-.146-.225-.146-.224-.147-.223-.147-.223-.149-3.78-2.528 5.005-7.48 3.768 2.521.2.133.202.133.201.132.202.131.202.131.203.13.202.13.204.129.204.129.204.127.205.128.205.127.205.126.206.125.206.125.207.124.207.124.207.123.208.123.209.121.208.122.21.12.209.12.21.12.21.119.21.118.211.117.212.117.212.116.212.116.212.115.213.115.214.114.214.113.214.112.214.112.215.112.215.11.216.11.216.11.216.108.217.108.217.108.218.107.218.106.218.105.218.105.22.105.219.103.22.103.22.103.22.101.22.101.222.101.221.099.222.1.222.098.222.098.223.097.224.096.223.096.224.095.225.095.224.093.225.094.226.092.225.092.226.091.227.09.226.09.227.089.228.089.227.088.228.087.229.086.228.086.23.085.229.084.23.084.23.083.23.082.23.082.231.081.232.08.231.08.232.079.232.078.233.077.233.077.233.076.234.076.233.074.235.074.234.074.235.072.235.072.235.071.236.071.236.07.236.069.237.068.237.068.237.067.237.066.238.066.238.065.239.064.238.063.24.063.239.062.239.061.24.06.24.06.24.059.241.059.241.057.242.057.24.056.243.056.242.054.242.054.243.054.243.052.243.052.243.051.244.05.244.05.245.048.244.048.245.048.245.046.246.046.245.045.246.045.246.043.247.043.246.042.247.041.248.041.247.04.248.039.248.038.248.038.249.036.248.036.25.036.249.034.25.034.249.033.25.032.25.031.25.031.251.03.251.029.251.028.252.028.252.027.251.026.252.025.253.024.252.024.253.023.254.022.253.021.253.021.254.019.254.019.254.018.255.018.254.016.255.016.256.015 4.731.262-.499 8.987zm37.311-7.994l-4.139-7.991 4.051-2.099.215-.112.214-.112.213-.113.214-.114.213-.115.212-.115.213-.116.211-.116.212-.117.211-.117.211-.118.21-.119.21-.12.209-.12.209-.12.209-.122.208-.121.208-.123.207-.123.207-.124.207-.124.207-.125.205-.125.206-.126.205-.127.204-.128.205-.127.203-.129.204-.129.203-.13.202-.13.203-.131.201-.131.202-.133.2-.132.201-.133.2-.134.2-.135.199-.135.199-.135.198-.136.198-.137.197-.138.197-.137.197-.139.196-.139.196-.14.195-.14.195-.141.194-.141.195-.142.193-.143.193-.143.193-.143.192-.144.192-.145.191-.145.191-.146.19-.147.19-.147.19-.147.189-.148.189-.149.188-.149.187-.15.188-.151.187-.15.186-.152.186-.152.185-.152.185-.153.184-.154.184-.154.184-.155.183-.155.182-.156.183-.156.181-.157.181-.158.181-.157.18-.159.18-.159.179-.159.179-.16.178-.161.178-.161.177-.162.177-.162.177-.163.175-.163.176-.164.174-.164.175-.165.174-.165.173-.166.173-.166.172-.167.172-.167.172-.168.171-.168.17-.169.17-.169.169-.17.169-.171.168-.171.168-.171.168-.172.166-.172.167-.173.165-.174.166-.173.164-.175.165-.175.163-.175.164-.176.162-.176.162-.177.162-.177.161-.178.161-.178.16-.179.159-.179.159-.18.159-.18.158-.181.157-.181.157-.182.156-.182.156-.182.155-.183.155-.184.154-.184.154-.184.153-.185.152-.186.152-.185.152-.187.151-.187.15-.187.15-.187.149-.189.149-.188.148-.189.147-.19.147-.19.147-.19.146-.191.145-.191.145-.192.144-.192.144-.193.143-.193.142-.194.142-.194.142-.194.14-.195.141-.195.139-.196.139-.196.139-.197.138-.197.137-.197.137-.198.136-.199.135-.198.136-.2.134-.199.134-.2.133-.201.133-.201.132-.201.131-.202.131-.202.13-.202.13-.203.129-.204 2.528-4.009 7.613 4.801-2.535 4.02-.144.226-.144.226-.145.225-.146.225-.146.225-.147.224-.147.223-.148.223-.149.223-.15.222-.15.221-.151.221-.151.221-.152.22-.153.22-.154.219-.154.219-.154.218-.156.218-.156.217-.156.216-.157.217-.158.215-.159.216-.159.215-.16.214-.16.213-.161.214-.161.212-.163.213-.163.212-.163.211-.164.211-.165.21-.165.21-.166.209-.167.209-.167.208-.168.207-.168.208-.169.206-.17.206-.17.206-.171.205-.171.205-.172.204-.173.203-.173.203-.174.203-.174.202-.175.201-.176.201-.176.2-.177.2-.177.199-.178.199-.179.198-.179.198-.179.197-.181.197-.181.196-.181.195-.182.195-.183.195-.183.194-.184.193-.184.193-.185.192-.185.192-.186.191-.187.19-.187.19-.188.19-.188.188-.189.189-.19.188-.19.187-.19.186-.191.186-.192.186-.192.185-.193.184-.193.184-.194.183-.194.183-.195.182-.196.181-.196.181-.197.18-.197.18-.197.179-.199.179-.198.178-.2.177-.199.177-.201.176-.201.176-.201.175-.202.174-.202.174-.203.173-.204.173-.204.172-.205.171-.205.171-.205.17-.206.17-.207.169-.207.168-.208.168-.208.167-.209.167-.209.166-.21.165-.21.165-.211.164-.211.163-.212.163-.212.162-.213.162-.213.161-.214.16-.214.16-.215.159-.215.159-.216.157-.216.158-.217.156-.217.156-.218.155-.218.155-.219.154-.219.154-.22.152-.22.152-.22.152-.222.151-.221.15-.222.149-.223.149-.223.149-.223.147-.224.147-.225.146-.224.146-.226.145-.226.144-.226.144-.226.143-.228.142-.227.142-.228.141-.229.14-.229.14-.23.139-.229.138-.231.137-.231.137-.231.137-.232.135-.232.135-.233.134-.233.134-.233.133-.234.132-.234.131-.235.131-.236.13-.235.13-.236.129-.237.128-.237.127-.237.127-.238.126-.239.125-.238.124-4.064 2.105zM22.411 143.542l-2.036-4.209-.117-.243-.116-.244-.116-.244-.114-.245-.114-.244-.113-.246-.113-.246-.111-.246-.111-.246-.11-.247-.11-.248-.11-.247-.107-.248-.108-.249-.106-.249-.106-.249-.105-.25-.105-.25-.104-.251-.102-.25-.103-.252-.101-.251-.1-.252-.1-.253-.1-.252-.098-.254-.098-.253-.097-.254-.096-.254-.096-.255-.095-.255-.093-.255-.094-.256-.092-.256-.092-.257-.09-.256-.09-.258-.09-.257-.089-.258-.088-.258-.087-.259-.086-.259-.085-.259-.085-.26-.084-.26-.084-.26-.082-.261-.082-.261-.08-.261-.08-.262-.08-.262-.078-.263-.078-.262-.077-.264-.076-.263-.075-.264-.075-.264-.074-.264-.073-.265-.072-.265-.071-.266-.07-.265-.07-.266-.07-.267-.068-.267-.067-.267-.067-.267-.066-.268-.064-.268-.065-.268-.063-.269-.063-.269-.061-.269-.061-.269-.06-.27-.06-.27-.058-.271-.057-.271-.057-.271-.056-.271-.056-.272-.054-.272-.053-.272-.053-.272-.052-.273-.05-.273-.05-.274-.05-.274-.049-.274-.047-.274-.047-.274-.046-.275-.045-.275-.045-.276-.043-.275-.043-.276-.041-.277-.041-.276-.04-.277-.04-.277-.038-.277-.038-.278-.036-.278-.036-.278-.035-.278-.034-.279-.033-.279-.033-.279-.031-.279-.03-.28-.03-.28-.03-.28-.027-.28-.028-.281-.026-.281-.025-.281-.025-.282-.024-.281-.022-.282-.022-.282-.021-.283-.02-.282-.02-.283-.018-.283-.018-.283-.016-.284-.016-.284-.015-.284-.014-.284-.013-.284-.012-.285-.011-.285-.01-.285-.01-.285-.009-.286-.007-.286-.007-.286-.006-.286-.005-.286-.004-.287-.003-.287-.003-.287-.001-.287v-.575l.001-.287.003-.287.003-.287.004-.287.005-.286.006-.286.007-.286.007-.286.009-.286.01-.285.01-.285.011-.285.012-.285.013-.284.014-.284.015-.284.016-.284.016-.284.018-.283.018-.283.02-.283.02-.283.02-.282.023-.282.378-4.683 8.971.726-.378 4.668-.02.254-.018.254-.018.254-.018.255-.016.254-.016.255-.015.255-.014.256-.013.255-.013.256-.012.256-.01.256-.01.257-.01.256-.009.257-.007.257-.007.258-.006.257-.006.258-.004.258-.004.258-.003.258-.002.259-.001.258v.518l.001.259.002.259.003.258.004.258.004.258.006.258.006.257.007.258.007.257.009.257.01.256.01.257.01.256.012.256.013.256.013.255.014.256.015.255.016.255.016.254.018.255.018.254.019.254.02.254.02.253.021.254.022.253.023.253.024.252.024.253.026.252.026.252.026.251.028.252.028.251.03.251.03.251.03.25.031.25.032.25.033.25.034.25.035.249.035.249.036.249.037.248.037.248.038.248.04.248.04.247.04.248.041.247.042.246.043.247.043.246.045.246.045.245.046.246.046.245.048.245.048.244.049.245.049.244.05.244.051.243.052.243.052.243.054.243.054.242.054.242.056.242.056.242.057.241.058.241.058.241.059.24.06.24.06.24.061.24.062.239.063.239.063.238.065.239.064.238.066.238.066.237.067.237.068.237.068.237.07.236.07.236.07.236.07.235.073.235.072.235.074.234.074.235.074.233.076.234.076.233.077.233.077.233.078.232.08.232.079.231.08.232.081.231.082.23.082.231.083.23.084.229.084.23.085.229.086.228.086.229.087.228.088.228.089.227.089.227.09.227.09.226.091.226.092.226.093.225.093.225.093.224.095.225.095.224.096.223.096.224.097.222.098.223.098.222.1.222.1.221.1.222.1.22.102.221.103.22.103.22.103.219.105.219.105.218 2.03 4.197-8.103 3.919zm166.944-35.836l-8.997-.242.125-4.633.006-.257.005-.258.005-.258.003-.258.003-.258.002-.259.001-.259.001-.259-.001-.258-.001-.259-.002-.259-.003-.258-.003-.258-.005-.258-.005-.258-.006-.257-.007-.258-.008-.257-.009-.257-.009-.256-.01-.257-.011-.256-.012-.256-.012-.256-.014-.255-.014-.256-.015-.255-.016-.255-.016-.255-.017-.254-.019-.254-.019-.254-.019-.254-.021-.253-.021-.254-.022-.253-.023-.253-.024-.252-.024-.253-.025-.252-.026-.252-.027-.251-.028-.252-.028-.251-.029-.251-.03-.25-.03-.251-.032-.25-.032-.25-.033-.25-.034-.25-.034-.249-.035-.249-.036-.249-.037-.248-.038-.248-.038-.248-.039-.248-.04-.248-.04-.247-.042-.247-.042-.246-.043-.247-.043-.246-.045-.246-.045-.246-.045-.245-.047-.245-.047-.245-.048-.245-.049-.244-.05-.244-.05-.244-.051-.243-.052-.243-.052-.243-.053-.243-.054-.242-.055-.242-.056-.242-.056-.242-.057-.241-.057-.241-.059-.24-.059-.241-.059-.24-.061-.24-.061-.24-.062-.239-.063-.239-.063-.239-.064-.238-.065-.238-.066-.238-.066-.237-.067-.237-.068-.237-.068-.237-.069-.236-.07-.236-.07-.236-.072-.235-.071-.235-.073-.235-.073-.235-.074-.234-.075-.234-.076-.233-.076-.233-.076-.233-.078-.233-.078-.232-.079-.232-.08-.232-.08-.23-.081-.232-.082-.23-.082-.23-.083-.23-.083-.23-.085-.23-.085-.229-.086-.229-.086-.228-.087-.228-.088-.228-.088-.227-.09-.227-.089-.227-.091-.226-.091-.226-.092-.226-.092-.225-.093-.225-.094-.225-.095-.224-.095-.224-.095-.224-.097-.223-.097-.223-.098-.222-.098-.222-.099-.222-.1-.222-.1-.22-.101-.222-.102-.22-.102-.22-.103-.22-.104-.219-.104-.219-.105-.218-.106-.219-.106-.218-.107-.217-.107-.217-.108-.217-.109-.216-.11-.216-.11-.216-.11-.215-.112-.215-.112-.215-.112-.214-.113-.213-.114-.214-.115-.213-.115-.212-.115-.212-.117-.212-2.275-4.114 7.876-4.356 2.282 4.126.129.235.129.236.128.237.127.237.127.237.126.238.125.239.125.238.124.24.123.24.122.24.122.24.121.24.12.241.12.242.119.242.118.243.118.243.116.243.116.244.116.244.114.244.114.245.114.246.112.245.112.247.111.246.11.247.11.247.108.248.109.248.107.249.107.249.106.25.105.249.104.25.104.25.103.251.102.251.101.252.101.252.1.252.099.253.099.253.097.254.097.254.097.254.095.255.095.255.094.255.093.256.092.256.092.256.091.257.09.257.09.258.088.258.088.258.087.259.086.259.086.259.085.26.084.26.083.26.082.26.082.262.081.261.08.262.079.262.079.263.077.262.077.263.076.264.076.264.074.264.074.264.073.265.072.265.072.265.07.266.07.266.069.267.068.267.068.266.066.268.066.268.065.268.064.268.063.269.063.268.062.27.06.27.061.27.059.27.058.27.058.27.057.271.056.272.055.272.054.272.054.272.052.272.052.273.051.273.05.274.05.273.048.274.048.275.047.274.046.275.045.275.044.276.043.275.043.276.042.276.041.277.04.277.039.277.038.277.038.278.037.277.035.279.035.278.034.279.034.279.032.279.031.279.031.28.03.28.029.28.028.28.027.28.026.282.026.28.024.282.024.282.023.282.022.282.021.282.02.283.019.283.018.283.018.283.017.284.015.284.015.284.014.284.013.284.012.285.012.285.01.285.009.285.009.286.008.286.007.286.005.286.005.286.005.287.003.287.002.287.001.287.001.287-.001.288-.001.287-.002.287-.003.287-.005.287-.005.286-.005.286-.007.286-.125 4.647zM32.647 58.296l-7.342-5.205 2.71-3.823.155-.218.156-.217.157-.217.157-.216.157-.216.159-.215.16-.215.159-.214.16-.214.161-.213.162-.213.162-.212.163-.212.163-.211.165-.21.164-.211.166-.21.166-.209.166-.209.167-.208.168-.208.168-.207.17-.206.169-.206.17-.206.171-.205.172-.205.172-.204.172-.203.173-.203.174-.203.175-.202.175-.201.175-.201.176-.2.177-.2.178-.2.177-.198.179-.199.18-.197.179-.197.18-.197.181-.196.181-.195.182-.195.183-.195.183-.194.184-.193.184-.193.185-.192.186-.192.186-.19.186-.191.188-.19.187-.19.189-.189.188-.188.19-.188.19-.187.19-.187.192-.186.191-.185.192-.185.193-.184.194-.184.193-.183.195-.183.195-.182.195-.181.196-.181.197-.18.197-.18.198-.18.198-.178.199-.178.199-.177.2-.177.2-.176.201-.176.201-.175.202-.174.203-.174.203-.173.203-.173.204-.172.205-.171.205-.171.206-.17.206-.17.206-.169.208-.168.207-.168.209-.167.208-.167.21-.166.21-.165.21-.165.21-.164.212-.163.211-.163.213-.162.212-.162.214-.161.213-.16.215-.16.214-.16.216-.158.215-.157.217-.158.216-.156.218-.156.217-.156.218-.154.22-.154.218-.154.22-.153.22-.152.22-.151.222-.15.221-.151.222-.15.223-.149.223-.148.224-.147.223-.147.225-.146.225-.146.225-.145.226-.144.226-.144.227-.143.227-.142.228-.142.228-.14.228-.141.23-.14.229-.139.23-.138.23-.138.231-.137.231-.136.232-.135.232-.135.233-.135.233-.133.233-.133.234-.132.235-.132.235-.13.235-.13.236-.13.236-.129.236-.128.237-.127.238-.127.238-.126.238-.125.239-.125.239-.123.24-.124.24-.122.24-.122.24-.12.242-.121.241-.12.242-.119.243-.118.243-.117.243-.117.244-.116.244-.116.245-.114.245-.114.245-.114.246-.112.246-.112 4.202-1.892 3.695 8.206-4.19 1.887-.22.1-.221.101-.22.102-.22.102-.22.104-.22.103-.219.104-.218.105-.219.106-.217.106-.218.107-.217.107-.217.108-.216.11-.216.109-.216.11-.215.11-.215.112-.214.112-.215.112-.213.113-.214.114-.213.115-.212.115-.212.115-.212.117-.212.117-.21.117-.211.118-.21.12-.21.119-.21.12-.209.12-.209.121-.208.122-.208.123-.207.123-.207.124-.207.124-.206.125-.206.125-.205.126-.206.127-.204.127-.204.128-.204.129-.203.129-.203.13-.203.13-.202.13-.202.132-.201.132-.201.133-.2.133-.2.134-.2.135-.2.135-.198.135-.199.136-.198.137-.197.137-.197.138-.197.139-.196.139-.196.14-.195.14-.195.14-.194.142-.194.142-.194.142-.193.143-.193.144-.192.144-.191.145-.192.145-.19.146-.191.147-.19.147-.19.147-.189.148-.188.149-.188.15-.188.15-.187.15-.187.15-.187.152-.185.152-.186.152-.185.153-.184.154-.184.154-.184.155-.183.155-.182.156-.182.156-.182.157-.181.157-.18.158-.181.159-.18.159-.179.16-.179.16-.178.16-.178.161-.177.162-.177.162-.176.163-.176.163-.175.163-.175.165-.175.164-.173.166-.174.165-.173.167-.172.167-.172.167-.171.168-.171.168-.17.169-.17.17-.17.17-.169.17-.168.17-.168.172-.167.172-.167.172-.166.173-.166.173-.165.174-.165.175-.164.174-.164.176-.163.176-.163.176-.162.177-.162.177-.16.178-.161.178-.16.179-.16.18-.159.179-.158.18-.158.18-.158.182-.157.181-.156.183-.156.182-.155.183-.155.184-.154.184-.153.184-.154.185-.152.185-.152.186-.151.187-.151.186-.15.188-.15.187-.15.188-.148.19-.148.188-.148.19-.147.19-.147.19-.145.19-.146.192-.145.192-.144.192-.143.193-.143.193-.143.194-.142.194-.141.194-.141.195-.14.195-.14.196-2.702 3.812zm112.401-24.131l-4.073-2.4-.208-.122-.209-.12-.209-.121-.209-.12-.21-.12-.21-.119-.211-.118-.211-.117-.212-.117-.211-.117-.213-.115-.212-.115-.213-.115-.213-.114-.214-.113-.214-.112-.215-.112-.215-.112-.215-.11-.216-.11-.216-.11-.216-.108-.217-.109-.217-.107-.217-.107-.218-.106-.218-.106-.219-.105-.219-.104-.219-.104-.22-.102-.22-.103-.22-.102-.221-.1-.221-.1-.222-.1-.222-.1-.222-.098-.222-.098-.223-.097-.223-.096-.224-.096-.224-.095-.224-.095-.225-.094-.225-.093-.225-.092-.226-.092-.226-.091-.226-.09-.227-.09-.227-.09-.227-.088-.228-.088-.228-.087-.228-.086-.229-.086-.229-.085-.229-.084-.23-.084-.23-.083-.23-.082-.231-.082-.231-.081-.231-.08-.232-.08-.232-.079-.232-.078-.233-.077-.233-.077-.233-.076-.233-.076-.234-.075-.234-.073-.235-.074-.235-.073-.235-.071-.235-.072-.236-.07-.236-.07-.236-.069-.237-.068-.236-.068-.238-.067-.237-.066-.238-.066-.238-.065-.238-.064-.239-.063-.239-.063-.239-.062-.24-.061-.24-.06-.24-.06-.24-.06-.241-.058-.241-.057-.241-.057-.242-.056-.241-.056-.243-.055-.242-.053-.243-.054-.243-.052-.243-.052-.243-.051-.244-.05-.244-.05-.244-.049-.245-.048-.245-.047-.245-.047-.245-.045-.246-.045-.246-.045-.246-.043-.246-.043-.247-.042-.247-.041-.247-.041-.248-.04-.248-.039-.248-.038-.248-.038-.248-.037-.249-.036-.249-.035-.249-.034-.25-.034-.249-.033-.25-.032-.251-.032-.25-.03-.251-.03-.251-.03-.251-.027-.251-.028-.252-.027-.252-.026-.252-.025-.253-.024-.252-.024-.253-.023-.253-.022-.253-.021-.254-.02-.254-.02-.254-.02-.254-.017-.255-.018-.254-.016-.255-.016-.255-.015-.256-.014-.255-.014-.256-.012-.256-.012-.256-.01-.257-.011-.256-.01-.257-.008-.257-.008-.258-.007-.257-.006-.258-.005-.258-.005-.258-.003-.258-.003-.259-.002-.258-.001-4.766-.008.014-9 4.78.008.287.001.287.002.287.004.287.004.286.005.286.006.286.006.286.008.286.009.285.01.285.01.285.01.285.013.284.013.284.014.284.015.284.015.284.017.283.018.283.018.283.02.283.02.282.02.282.022.282.023.282.024.281.024.281.026.281.026.281.027.28.028.28.03.28.029.28.03.279.032.28.033.278.033.279.034.278.035.279.036.277.036.278.038.277.038.277.04.277.04.277.04.276.042.276.043.276.043.275.044.275.046.275.045.274.047.275.048.274.049.273.049.274.05.273.051.273.052.272.053.273.053.272.054.271.055.272.056.271.057.27.058.271.058.27.06.27.06.269.06.27.062.269.063.268.063.269.064.268.065.267.066.268.066.267.068.266.068.267.07.266.069.266.07.265.072.265.072.265.073.264.074.264.074.264.076.264.076.263.077.263.078.262.078.262.08.262.08.261.08.261.082.261.082.26.083.26.084.26.085.259.086.259.086.259.087.258.088.258.089.258.089.257.09.257.091.256.092.256.092.256.093.255.094.255.095.255.095.254.097.254.097.254.097.253.099.253.099.252.1.252.1.252.102.251.102.251.103.25.104.25.104.25.106.249.106.249.106.249.108.248.108.248.108.247.11.247.11.247.111.246.112.245.112.246.114.245.114.244.114.244.116.244.116.243.116.243.118.243.118.242.12.242.119.241.12.241.121.24.122.24.122.24.123.239.124.238.125.239.125.238.126.237.127.237.127.237.128.236.129.235.13.236.13.235.13.234.132.234.132.233.133.233.133.233.135.232.135.232.135 4.085 2.407-4.569 7.754z"
    fill="#908478">
    <animateTransform attributeType="xml" attributeName="transform" type="rotate" from="360 100 100" to="0 100 100"
      dur="3s" repeatCount="indefinite" />
  </path>
  <path
    d="M147.188 97.856c3.48 5.228 5.436 11.119 5.436 17.352 0 21.59-23.478 39.092-52.44 39.092-28.962 0-52.44-17.502-52.44-39.092 0-6.25 1.967-12.158 5.465-17.397l3.845-51.546 25.216 32.19c5.59-1.514 11.622-2.34 17.914-2.34 6.305 0 12.35.83 17.949 2.35l25.209-32.18 3.846 51.57z"
    fill="#0095b7" stroke="#0095b7" />
</svg>
